<svg width="500" height="150" xmlns="http://www.w3.org/2000/svg">
 <!-- Created with Method Draw - http://github.com/duopixel/Method-Draw/ -->

 <g>
  <title>background</title>
  <rect fill="#f4f8fc" id="canvas_background" height="152" width="502" y="-1" x="-1"/>
  <g display="none" overflow="visible" y="0" x="0" height="100%" width="100%" id="canvasGrid">
   <rect fill="url(#gridpattern)" stroke-width="0" y="0" x="0" height="100%" width="100%"/>
  </g>
 </g>
 <g>
  <title>Layer 1</title>
  <g stroke="null" id="svg_15">
   <path stroke="null" id="svg_5" fill="#abc3db" d="m129.03476,60.15929c1.24879,0 1.66505,0.47946 1.66505,1.77033l0,29.21042l14.11828,0c1.2141,0 1.66505,0.47946 1.66505,1.77033l0,2.58173c0,1.29086 -0.45095,1.77033 -1.66505,1.77033l-18.59311,0c-1.2141,0 -1.69974,-0.47946 -1.69974,-1.77033l0,-33.56248c0,-1.29086 0.48564,-1.77033 1.69974,-1.77033l2.80978,0z"/>
   <path stroke="null" id="svg_6" fill="#abc3db" d="m158.79761,73.03105c0,-8.51971 5.06454,-13.64628 13.87546,-13.64628s13.87546,5.12658 13.87546,13.64628l0,11.35961c0,8.51971 -5.09923,13.64628 -13.87546,13.64628s-13.87546,-5.12658 -13.87546,-13.64628l0,-11.35961zm21.92322,0c0,-4.79464 -2.80978,-7.37637 -7.87432,-7.37637s-7.83963,2.61861 -7.83963,7.37637l0,11.43337c0,4.83152 2.77509,7.37637 7.83963,7.37637s7.87432,-2.65549 7.87432,-7.37637l0,-11.43337z"/>
   <path stroke="null" id="svg_7" fill="#abc3db" d="m227.86269,76.94053c1.35286,0 1.66505,0.47946 1.66505,1.77033l0,7.00755a10.40659,11.06455 0 0 1 -3.677,8.70412a15.12425,16.08048 0 0 1 -10.40659,3.46689c-8.98436,0 -13.87546,-5.12658 -13.87546,-13.64628l0,-11.43337c0,-8.40906 5.06454,-13.57252 13.87546,-13.57252c6.93773,0 11.44725,2.91367 13.35513,8.741a1.49161,1.58592 0 0 1 -1.04066,2.28667l-2.70571,0.99581c-1.17941,0.44258 -1.66505,0.18441 -2.08132,-1.10646a7.14586,7.59766 0 0 0 -7.52743,-4.79464c-5.09923,0 -7.87432,2.61861 -7.87432,7.37637l0,11.72843c0,4.83152 2.80978,7.37637 7.87432,7.37637s8.18652,-2.47108 8.18652,-6.0855l0,-2.72926l-7.52743,0c-1.24879,0 -1.69974,-0.51635 -1.69974,-1.80721l0,-2.50797c0,-1.29086 0.45095,-1.77033 1.69974,-1.77033l11.75945,0z"/>
   <path stroke="null" id="svg_8" fill="#abc3db" d="m243.85415,73.03105c0,-8.51971 5.06454,-13.64628 13.87546,-13.64628s13.87546,5.12658 13.87546,13.64628l0,11.35961c0,8.51971 -5.09923,13.64628 -13.87546,13.64628s-13.87546,-5.12658 -13.87546,-13.64628l0,-11.35961zm21.88853,0c0,-4.79464 -2.80978,-7.37637 -7.83963,-7.37637s-7.87432,2.61861 -7.87432,7.37637l0,11.43337c0,4.83152 2.80978,7.37637 7.87432,7.37637s7.83963,-2.65549 7.83963,-7.37637l0,-11.43337z"/>
   <path stroke="null" id="svg_9" fill="#abc3db" d="m287.94341,61.22886c0,-0.8114 0.24282,-1.06957 1.00597,-1.06957l1.59568,0c0.76315,0 0.93659,0.25817 0.93659,1.06957l0,34.96399c0,0.8114 0,1.06957 -0.93659,1.06957l-1.59568,0c-0.76315,0 -1.00597,-0.25817 -1.00597,-1.06957l0,-34.96399z"/>
   <path stroke="null" id="svg_10" fill="#abc3db" d="m323.08301,60.15929a10.89223,11.5809 0 1 1 0,23.1618l-10.40659,0l0,12.87176c0,0.8114 -0.17344,1.06957 -0.9019,1.06957l-1.63037,0c-0.72846,0 -1.00597,-0.25817 -1.00597,-1.06957l0,-34.96399c0,-0.8114 0.27751,-1.06957 1.00597,-1.06957l12.93886,0zm-0.3122,19.5105a7.56212,8.04024 0 1 0 0,-16.08048l-10.40659,0l0,16.08048l10.40659,0z"/>
   <path stroke="null" id="svg_11" fill="#abc3db" d="m361.06707,59.42165a12.5226,13.31435 0 0 1 12.90417,8.04024c0.27751,0.59011 0,1.06957 -0.55502,1.36463l-1.5263,0.73764c-0.6244,0.25817 -0.86722,0.22129 -1.24879,-0.47946a9.43531,10.03186 0 0 0 -9.57406,-6.04862c-5.86238,0 -9.05373,2.47108 -9.05373,6.8969a5.27267,5.60604 0 0 0 4.40546,5.6798a23.55359,25.04277 0 0 0 5.75831,1.18022a23.86578,25.37471 0 0 1 6.93773,1.51216a7.80494,8.29841 0 0 1 5.41143,8.741c0,6.8969 -4.71765,11.06455 -13.38981,11.06455a12.5226,13.31435 0 0 1 -13.28575,-8.96229a0.93659,0.99581 0 0 1 0.58971,-1.40151l1.5263,-0.59011a0.93659,0.99581 0 0 1 1.24879,0.62699a9.92095,10.54821 0 0 0 9.92095,6.63873c6.55615,0 9.7822,-2.4342 9.7822,-7.37637a5.16861,5.49539 0 0 0 -4.05857,-5.64292a24.28205,25.81729 0 0 0 -5.51549,-1.03269l-3.74637,-0.51635a32.95421,35.03775 0 0 1 -3.46886,-0.99581a9.12311,9.69992 0 0 1 -3.08729,-1.73345a8.46403,8.99917 0 0 1 -2.77509,-7.04443c0.24282,-6.45432 4.78703,-10.65885 12.80011,-10.65885z"/>
   <path stroke="null" id="svg_12" fill="#abc3db" d="m393.22343,84.64883a9.64344,10.25315 0 0 0 19.25219,0l0,-23.41997c0,-0.8114 0.24282,-1.06957 1.00597,-1.06957l1.59568,0c0.76315,0 1.00597,0.25817 1.00597,1.06957l0,23.38309c0,8.37218 -4.64828,13.42499 -13.21637,13.42499s-13.21637,-5.05281 -13.21637,-13.42499l0,-23.38309c0,-0.8114 0.24282,-1.06957 0.97128,-1.06957l1.63037,0c0.72846,0 0.97128,0.25817 0.97128,1.06957l0,23.41997z"/>
   <path stroke="null" id="svg_13" fill="#abc3db" d="m463.95357,60.15929c0.76315,0 1.00597,0.25817 1.00597,1.06957l0,34.96399c0,0.8114 -0.24282,1.06957 -1.00597,1.06957l-1.45692,0c-0.72846,0 -0.97128,-0.25817 -0.97128,-1.06957l0,-21.28082a64.34742,68.41582 0 0 1 0.58971,-9.25734l-0.20813,0a62.43955,66.38732 0 0 1 -3.78106,8.15089l-7.45806,13.97822a1.2141,1.29086 0 0 1 -1.14473,0.8114l-0.97128,0a1.28348,1.36463 0 0 1 -1.17941,-0.8114l-7.56212,-14.12575a55.74464,59.26912 0 0 1 -3.46886,-8.04024l-0.20813,0a75.48248,80.25489 0 0 1 0.55502,9.33111l0,21.24394c0,0.8114 -0.24282,1.06957 -1.00597,1.06957l-1.35286,0c-0.76315,0 -1.00597,-0.25817 -1.00597,-1.06957l0,-34.96399c0,-0.8114 0.24282,-1.06957 1.00597,-1.06957l1.24879,0a1.38755,1.47527 0 0 1 1.38755,0.84828l12.14102,22.94051l12.07165,-22.71922c0.38158,-0.77452 0.58971,-0.88516 1.35286,-0.88516l1.42223,-0.18441z"/>
   <path stroke="null" id="svg_14" fill="#abc3db" d="m67.32367,89.07466l0,26.66557a3.46886,3.68818 0 0 1 -7.24993,0l0,-26.62869a6.13989,6.52809 0 0 0 3.46886,1.25398a5.96645,6.34368 0 0 0 3.78106,-1.29086zm30.87289,-7.70831a3.46886,3.68818 0 0 0 -3.46886,3.68818l0,4.64711a3.46886,3.68818 0 1 0 7.24993,0l0,-4.4627a3.46886,3.68818 0 0 0 -3.78106,-3.87259zm-45.99714,17.81393a6.24395,6.63873 0 0 1 -3.46886,-1.25398l0,26.73934a3.64231,3.87259 0 0 0 7.28461,0l0,-26.55493a6.34802,6.74938 0 0 1 -3.81575,1.06957zm34.68864,-25.81729a3.46886,3.68818 0 0 0 -3.64231,3.68818l0,20.54319a3.64231,3.87259 0 1 0 7.28461,0l0,-20.28501a3.46886,3.68818 0 0 0 -3.81575,-3.87259l0.17344,-0.07376zm-11.51663,7.89271a6.34802,6.74938 0 0 1 -3.64231,-1.25398l0,26.8131a3.64231,3.87259 0 1 0 7.28461,0l0,-26.77622a6.13989,6.52809 0 0 1 -3.81575,1.29086l0.17344,-0.07376zm-31.04633,20.54319l0,-74.90703a3.26073,3.46689 0 0 0 -3.26073,-3.43001l-0.76315,0a3.26073,3.46689 0 0 0 -3.26073,3.43001l0,74.90703a3.26073,3.46689 0 0 0 3.26073,3.46689l0.76315,0a3.26073,3.46689 0 0 0 3.26073,-3.46689zm8.2559,-5.45851l-0.76315,0a3.26073,3.46689 0 0 1 -3.26073,-3.46689l0,-57.05621a3.26073,3.46689 0 0 1 3.26073,-3.43001l0.76315,0a3.26073,3.46689 0 0 1 3.26073,3.43001l0,57.12998a3.26073,3.46689 0 0 1 -3.26073,3.46689l0,-0.07376zm11.48194,-8.77788l-0.79784,0a3.22604,3.43001 0 0 1 -3.22604,-3.43001l0,-39.46357a3.22604,3.43001 0 0 1 3.22604,-3.46689l0.79784,0a3.26073,3.46689 0 0 1 3.22604,3.46689l0,39.46357a3.22604,3.43001 0 0 1 -3.22604,3.43001zm11.48194,-9.03605l-0.72846,0a3.26073,3.46689 0 0 1 -3.26073,-3.43001l0,-21.24394a3.26073,3.46689 0 0 1 3.26073,-3.68818l0.76315,0a3.26073,3.46689 0 0 1 3.26073,3.46689l0,21.39147a3.26073,3.46689 0 0 1 -3.26073,3.50378l-0.03469,0zm11.51663,-7.9296l-0.76315,0a3.26073,3.46689 0 0 1 -3.26073,-3.46689l0,-5.49539a3.26073,3.46689 0 0 1 3.26073,-3.43001l0.76315,0a3.26073,3.46689 0 0 1 3.26073,3.43001l0,5.49539a3.26073,3.46689 0 0 1 -3.22604,3.46689l-0.03469,0z"/>
  </g>
 </g>
</svg>