<svg width="188" height="35" fill="none" xmlns="http://www.w3.org/2000/svg"><path fill-rule="evenodd" clip-rule="evenodd" d="M65.06 22.7v5.12h1.27c1.66 0 2.55-.88 2.55-2.54 0-1.64-.91-2.58-2.56-2.58h-1.26zm.87-1.64c1.64 0 2.54-.84 2.54-2.4 0-1.47-.9-2.29-2.54-2.29h-.87v4.69h.87zm2.54.54v.12c1.35.1 2.45.52 3.27 1.2a3.25 3.25 0 011.22 2.6 3.4 3.4 0 01-1.43 2.98c-.96.65-2.19.98-3.7.98h-8.29v-1.3l1.65-.53V16.54l-1.65-.52v-1.31h7.64c1.48 0 2.7.29 3.64.87a2.88 2.88 0 011.42 2.6c0 1.77-1.25 2.92-3.77 3.42zm7.05-5.58v-1.31h7.16v1.31l-1.73.52v7.9c0 2.1 1.13 3.31 3.02 3.31 2 0 3.3-1.41 3.29-3.51l-.09-7.53-1.9-.73V14.7h5.42v1.27l-1.58.73-.08 7.53c-.03 1.83-.59 3.2-1.7 4.12a6.45 6.45 0 01-4.3 1.37 6.25 6.25 0 01-4.32-1.45c-1.09-.98-1.63-2.4-1.63-4.25v-7.49l-1.56-.52v.01zm24.51 11.8a3.7 3.7 0 003.16-1.58 7.26 7.26 0 001.17-4.33c0-3.58-1.65-5.54-4.33-5.54h-1.19v11.45h1.19zm-6.7 1.66v-1.3l1.64-.53V16.54l-1.64-.52v-1.31h7.53c2.31 0 4.14.62 5.52 1.85 1.37 1.23 2.06 3 2.06 5.33 0 2.35-.71 4.22-2.1 5.57a7.501 7.501 0 01-5.48 2.02h-7.53zm25.24-6.05l-1.15-3.02-.74-2.14h-.13l-.73 2.16-1.08 3h3.83zm-4.41 1.66l-.88 2.4 2 .72v1.27h-5.14v-1.27l1.2-.72 4.86-12.78h3.22l4.87 12.94 1.23.52v1.31h-7.01v-1.3l1.64-.53-.96-2.56h-5.03zm20.05-3.3c1.86 0 2.77-.94 2.77-2.8 0-1.8-.81-2.62-2.56-2.62h-1.06v5.41h.85v.01zm-4.72-5.25l-1.64-.52v-1.3h7.7c3.26 0 5.4 1.4 5.4 4.25 0 1.46-.52 2.56-1.56 3.33a6.56 6.56 0 01-4.05 1.15h-1.98v4.2l2.27.52v1.31h-7.78v-1.3l1.64-.53V16.54zm14.17 11.63l1.64-.52v-11.1l-1.64-.53v-1.31h12.59v4.58h-1.38l-1.35-2.92h-4.35v4.83l4.41-.48v2.54l-4.4-.48v5.04h4.65l1.46-3.1h1.37v4.76h-13v-1.31zm16.6-3.37h1.4l1.68 3.19c1.17.3 2.14.27 2.96-.11.8-.37 1.22-.94 1.22-1.7-.02-1.46-1.8-1.96-3.64-2.8-1.25-.6-2.35-1.16-3.08-2.4a4.33 4.33 0 01-.54-2.17c0-1.38.52-2.44 1.54-3.2a6.321 6.321 0 013.87-1.15c1.77 0 3.35.31 4.77.96v3.43h-1.38l-1.58-2.73c-2.14-.5-3.54.27-3.54 1.69 0 1.68 2.67 2.33 4.73 3.37a4.36 4.36 0 012.6 3.97c0 1.44-.6 2.56-1.81 3.37a7.871 7.871 0 01-4.54 1.21c-1.52 0-3.06-.4-4.66-1.16V24.8zm27.44-10.09v4.58h-1.37l-1.35-2.91h-2.23v11.27l2.06.52v1.31h-7.99v-1.3l2.06-.53V16.38h-2.22l-1.36 2.9h-1.37v-4.57h13.77z" fill="#fff"/><mask id="a" maskUnits="userSpaceOnUse" x="0" y="0" width="51" height="35"><path d="M0 .59h50.7v33.47H0V.59z" fill="#fff"/></mask><g mask="url(#a)"><path fill-rule="evenodd" clip-rule="evenodd" d="M32.82 19.41c-.41 0-.75.13-1.03.43 0-.6.45-.95 1.02-.95.47 0 .82.35.82.7a1.94 1.94 0 00-.81-.18zm-5.5-1h-1.47v-1.62s-.16-.16-.57-.16c-.4 0-.57.16-.57.16v1.62h-1.47v-2.85h1.3v-1.63s.25-.17.74-.17.73.17.73.17v1.63h1.3v2.85h.01zm-9.57 1c-.26 0-.57.06-.82.18 0-.35.35-.7.83-.7.56 0 1.01.36 1.01.95-.28-.3-.62-.43-1.02-.43zm30.12 6.1c2.15 0 2.72-.83 2.72-1.46 0-.74-.75-1.23-2.04-1.23a6.8 6.8 0 00-3.25.94c.2.12.41.22.64.31.78-.4 1.6-.68 2.52-.68 1.02 0 1.5.3 1.5.66 0 .44-.73.82-1.92.82-.64 0-1.18-.07-1.66-.2A4.27 4.27 0 0143 20.25l.21-.01c.1-.01.2.05.24.15l.26.82c.38 1.14 1 1.53 1.67 1.64-.13-.73-.53-1.45-1.6-2.74l.2-.11c.039-.02.083-.028.127-.02a.2.2 0 01.113.06l.73.8c.94 1.04 1.77 1.17 2.54.95-.49-.7-1.25-1.3-3.01-2.16l.17-.2a.2.2 0 01.24-.06l1.29.57c1.56.7 2.55.42 3.3-.2-.9-.55-2.06-.82-4.48-.92l.09-.26c.02-.1.1-.16.2-.16h1.8c2.1 0 3.08-.81 3.61-1.88-1.3-.18-2.74.1-5.54 1.23 0-.11-.02-.22-.04-.32a.26.26 0 01.14-.28l1.94-.87c2.28-1 2.94-2.35 3-3.77-1.5.44-2.93 1.45-5.45 4.05a2.364 2.364 0 00-.2-.24.28.28 0 010-.38l1.56-1.73c1.84-2.04 1.9-3.7 1.33-5.16-1.33 1.14-2.33 2.83-3.74 6.69a.94.94 0 00.22.99 1.31 1.31 0 11-2.03 1.63l-7.2 2.62v-.96c0-1.04-.64-1.7-1.5-1.7-.41 0-.7.1-.97.23 0-.34.29-.65.68-.74v-5.47H17.67v5.47c.39.1.68.4.68.74a2.04 2.04 0 00-.98-.22c-.86 0-1.5.65-1.5 1.7v.95L7.2 17.82c0 3.38-.68 6.68-3.01 6.68-1.05 0-1.8-.74-1.8-1.8 0-.99.74-1.7 1.8-1.7.28 0 .55.05.77.14-.13-.47-.58-.83-1.14-.93.86-.9 1.78-1.84 1.78-3.16 0-1.29-.94-2.46-2.6-2.46H.34c.15.37.54.6.86.65-.42.4-.67.94-.67 1.58 0 1.15.81 1.8 1.77 1.8 1.12 0 1.7-.9 1.7-1.57 0-.62-.44-1.09-1.08-1.09-.63 0-1.01.49-1.01.9.62 0 .96.3.96.7 0 .32-.29.52-.61.52-.62 0-1.09-.49-1.09-1.26 0-.9.75-1.57 1.8-1.57 1 0 1.8.73 1.8 1.8 0 2.13-3.52 3.09-3.52 5.65a2.8 2.8 0 002.92 2.93v1.14c0 .4-.33.73-.73.73H1.77c0 2.37-.66 4.02-1.77 4.9h1.42c1.31 0 1.8.42 1.8 1.44.46-.15.82-.64.82-1.08.47.13.62.62.62 1.3.65-.28.75-1.1.56-1.5.47 0 .9.57.97 1.28.25-.24.39-.66.39-1.07 0-.86-.58-1.45-1.62-1.45H2.43c0-1.71 1.2-2.38 3.82-2.38h.17a1 1 0 001-1v-.52c0-2.64 1.6-5.64 5.6-5.64 1.53 0 2.76.46 3.66.93 0-.98.47-1.51 1.13-1.51.17 0 .35.03.52.12 0-.46-.54-.89-1.2-.89.05-.17.32-.38.7-.38.34 0 .62.14.86.51.42.16.92.25 1.51.25 2.54 0 2.54-.87 5.08-.87s2.54.87 5.08.87c.59 0 1.1-.1 1.51-.25.24-.37.52-.51.86-.51.38 0 .65.21.7.38-.66 0-1.2.43-1.2.9.17-.1.35-.13.51-.13.67 0 1.14.53 1.14 1.5.9-.46 2.13-.92 3.66-.92 4 0 5.6 3 5.6 5.64v.52a1 1 0 001 1h.18c2.6 0 3.81.67 3.81 2.38H45.6c-1.04 0-1.62.59-1.62 1.45 0 .41.14.83.4 1.07.06-.71.5-1.28.96-1.28-.19.4-.09 1.22.57 1.5 0-.68.14-1.17.6-1.3 0 .44.37.93.83 1.08 0-1.02.49-1.43 1.8-1.43h1.42c-1.1-.89-1.77-2.54-1.77-4.9h-1.67a.74.74 0 01-.74-.74v-1.26h1.5-.01zm-35.52-9.24c.63.34 1.08.78 1.48 1.31l1-1.37h1.4c-.25-.41-.41-.74-.41-1.15 0-.47.38-.83.92-.83.26 0 .47.08.59.18 0-.64-.5-.9-.86-.9-.15 0-.36 0-.44.04.14-.52.76-.8 1.3-.8a.99.99 0 00-.82-.42c-.55 0-1.11.4-1.26 1.1a1 1 0 01-.02-1.1c-.54 0-.96.31-.96 1 0 .43.36 1.43.57 2.05l-2.49.89zm8.12-8.3a1.21 1.21 0 00-1.95-.96v1.9h1.95v-.94zm-9.04 4.5v.02h.36c.82 0 1.04.28 1.5.28.4 0 .69-.38.55-.77-.1.14-.32.25-.58.25-.35 0-.6-.12-.96-.12-.37 0-.68.15-.87.34zm8.54-2.24c0-.16.13-.29.3-.29h1.32c.16 0 .29.13.29.29v.74h1.97v-.44c0-.52.42-.93.93-.93h1c.51 0 .93.41.93.93v.44h1.97v-.74c0-.16.13-.29.3-.29h1.32c.16 0 .29.13.29.29v.74h1.93V9.94h-.48v-.68H18.52v.68h-.47v1.03h1.92v-.74zm-1.45 1.6h13.52v-.52H18.52v.52zm21.76 15.43l1.83-1.05-1.36-.78.98-.56a5.33 5.33 0 00-1-1.7l-3.5 2.02a1.1 1.1 0 00-.32 1.6c.81 1.09 2.31 2.08 2.31 4.34l-2.35-1.36c-.33-.2-.65-.29-.94-.29-.96 0-1.4.63-1.4 1.42 0 .12.02.28.05.4.23-.46.86-.8 1.46-.58a1.3 1.3 0 00-.46.99c0 .2.07.4.2.59.13-.42.6-.82 1.19-.82-.21.42-.14.92.2 1.28.27-.57.7-.82 1.39-.82 1.01 0 1.83.82 1.83.82v-1c0-1.53.4-2.38 1.1-3.05l-1.2-.7a.44.44 0 010-.75h-.01zM10.72 10.45c0 .15-.13.4-.41.4-.43 0-.88-.44-1-.84.66 0 1.16.23 1.41.44zm-4.94 4.2l-.1.37h1.15A5.06 5.06 0 006.46 17v.36l6.7 1.67c0-2.63-3.54-3.9-3.54-5.08 0-.24.13-.38.39-.38.33 0 .7.16 1.12.16.6 0 .9-.44 1.02-1.05H9.07c0-.49.57-.94 1.78-.94h1.01c.29 0 .49-.2.53-.46l.09-.46-.33-.06a.22.22 0 01-.18-.21h.55l.07-.35-1.72-.3c0-.26-.3-.64-1.55-.64H6.46s.26.88 1.49.88c0 .12-.09.18-.25.18h-.48c-.52.49-.96 1.03-1.5 1.99l-.22.36h1.17a7.87 7.87 0 00-.9 1.98h.01zm29.61 14.2c.84 0 1.4-.25 2.15-.66l-.37-.42c-.65.35-1.12.53-1.78.53-.46 0-.75-.26-.75-.63 0-.4.3-.63.75-.63-.11-.34-.37-.62-.83-.62-.64 0-1.08.45-1.08 1.07 0 .75.66 1.36 1.91 1.36zm-6.77-.22h-1.47V27s-.16-.16-.57-.16c-.4 0-.57.16-.57.16v1.63h-1.46V27s-.17-.16-.57-.16c-.41 0-.57.16-.57.16v1.63h-1.47v-4.48s.24-.16.73-.16.74.16.74.16v1.63h1.14v-1.63s.24-.16.73-.16.73.16.73.16v1.63h1.14v-1.63s.25-.16.74-.16c.48 0 .73.16.73.16v4.48zm-3.34-6.95c-2.54 0-2.54.87-5.08.87a3.6 3.6 0 01-2.5-.84c.33 6.24 3.03 9.72 7.58 12.35 4.55-2.63 7.25-6.11 7.58-12.35a3.6 3.6 0 01-2.5.83c-2.54 0-2.54-.87-5.08-.87v.01zm-10.65 7.8c-.29 0-.6.1-.94.29l-2.35 1.36c0-2.26 1.5-3.25 2.31-4.34a1.099 1.099 0 00-.33-1.6l-3.5-2.02a5.3 5.3 0 00-.99 1.7l.98.56-1.36.78 1.83 1.05c.29.17.29.6 0 .76l-1.2.7c.7.66 1.1 1.51 1.1 3.04v1s.8-.82 1.82-.82c.7 0 1.12.25 1.4.82.33-.36.4-.86.2-1.28.59 0 1.06.4 1.18.82.14-.18.2-.39.2-.59 0-.42-.21-.8-.46-.99.6-.21 1.24.12 1.46.57.04-.1.05-.27.05-.39 0-.79-.44-1.42-1.4-1.42zM30.09 7.97v.95h1.95V7.01a1.21 1.21 0 00-1.95.96zM19.26 6.41h.34c0-.4.14-.7.42-1.02.28-.33.68-.63 1.2-.89a7.9 7.9 0 012.16-.67v2.48h.34c.27-.5.76-.85 1.35-.92v-.1a.67.67 0 01-.22-.51c0-.33.2-.6.43-.6.23 0 .43.27.43.6 0 .22-.09.41-.22.52v.09c.59.07 1.09.43 1.35.92h.34V3.83c.8.14 1.54.37 2.16.67.52.26.92.56 1.2.89.28.33.42.66.42 1.02h.34c.19 0 .34-.22.34-.5s-.15-.51-.34-.51c-.1 0-.17.05-.24.14-.28-.5-.81-.97-1.57-1.34a9.66 9.66 0 00-4.2-.88c-1.6 0-3.1.31-4.22.88-.75.37-1.29.83-1.57 1.34-.06-.1-.15-.15-.24-.15-.19 0-.34.23-.34.51s.15.51.34.51zm13.98 8a.97.97 0 01.58-.19c.54 0 .92.37.92.84 0 .41-.16.74-.42 1.15h1.42l1 1.4c.37-.52.8-.99 1.42-1.36l-2.44-.87c.2-.62.57-1.62.57-2.05 0-.69-.42-1-.96-1 .23.34.19.82-.02 1.1a1.33 1.33 0 00-1.26-1.1 1 1 0 00-.81.42c.53 0 1.15.28 1.29.8a1.753 1.753 0 00-.44-.05.86.86 0 00-.85.9v.01zM23.8 2.06c.06.13.13.2.13.2l.73-.32.4.9a.24.24 0 00.43-.2l-.39-.89.74-.32s0-.1-.06-.23-.14-.2-.14-.2l-.73.31-.32-.73s-.1 0-.23.06-.2.13-.2.13l.32.73-.74.32s0 .1.06.24zm16.44 8.78a.42.42 0 01-.41-.4c.25-.2.75-.44 1.41-.44-.12.4-.57.84-1 .84zm.1 1.65h-1.92c.2.72 1.05 1.03 1.92 1.03.5 0 .95-.1 1.33-.24.12-.05.25.04.25.16 0 .82-4.36 2.45-4.54 5.59l4.38-.93a1.349 1.349 0 01-.08-.45c0-2.23 2.62-3.7 2.62-5.92 0-.72-.23-1.18-.53-1.51h-.74c-.16 0-.25-.06-.25-.18 1.2 0 1.66-.8 1.66-.8h-3.3c-1.01 0-1.55.45-1.55.8-1.62 0-2.43.66-2.43 1.5h4.77c0 .4-.57.95-1.6.95h.01zm-3.07.1c.46 0 .68-.3 1.5-.3h.36v-.01c-.18-.19-.5-.34-.86-.34s-.61.12-.97.12c-.26 0-.48-.11-.58-.25-.13.39.16.77.55.77v.01zM23.38 8.91l-1.05-2.16H22l-1.05 2.16h2.43zm5.36-3.01c0-.28-.15-.51-.34-.51-.2 0-.34.23-.34.5 0 .29.15.51.34.51.19 0 .34-.22.34-.5zm-6.24-.01c0-.28-.15-.51-.34-.51-.19 0-.34.23-.34.51s.15.51.34.51c.2 0 .35-.23.35-.51h-.01zm2.78-.18c-.79 0-1.43.64-1.43 1.43v1.77h2.86V7.15c0-.8-.64-1.43-1.43-1.43v-.01zm4.33 3.2l-1.04-2.16h-.34l-1.05 2.16h2.43z" fill="#fff"/></g></svg>